<svg xmlns="http://www.w3.org/2000/svg" viewBox="0 0 120.34135 30.51842"><defs><style>.cls-1{fill:#fc0;}</style></defs><g id="Layer_2" data-name="Layer 2"><g id="Layer_1-2" data-name="Layer 1"><path class="cls-1" d="M22.58159,10.69127,14.51616,28.24986a2.99505,2.99505,0,0,1-2.73047,1.93262h-.33594a3.08578,3.08578,0,0,1-2.73047-1.93262L.19194,10.69127c-.58789-1.17676.252-1.93262,1.4707-1.93262H5.065c1.21778,0,1.84864.67188,2.35254,1.93262l4.2002,11.13184,4.11719-11.13184c.46191-1.26074,1.13379-1.93262,2.35254-1.93262h3.02441C22.32963,8.75865,23.08647,9.51451,22.58159,10.69127Z"/><path class="cls-1" d="M39.84721,10.69127l-.79785,3.15039c-.33691,1.17578-1.05078,1.42871-1.76465,1.13379a7.74428,7.74428,0,0,0-2.18457-.41992c-2.47852,0-3.82227,1.63867-3.82227,4.11719V28.0399a1.73728,1.73728,0,0,1-1.89062,1.93262H25.90092A1.73684,1.73684,0,0,1,24.0103,28.0399V10.69127a1.73684,1.73684,0,0,1,1.89062-1.93262h2.22559a1.73684,1.73684,0,0,1,1.89062,1.93262v1.00781A7.038,7.038,0,0,1,35.772,8.42272a9.52831,9.52831,0,0,1,3.02441.46191C39.51127,9.13658,40.18315,9.47252,39.84721,10.69127Z"/><path class="cls-1" d="M51.896,25.35143a7.701,7.701,0,0,0,4.49512-1.51172c.75586-.58887,1.38574-.88281,2.18457-.042l1.42773,1.46972a1.337,1.337,0,0,1,.084,2.14258c-1.89063,2.0166-5.7129,3.1084-9.03125,3.1084-6.72168,0-11.63672-4.53613-11.63672-11.08984,0-6.34278,4.70507-11.00586,11.30078-11.00586a11.0828,11.0828,0,0,1,7.93945,2.98242,10.80936,10.80936,0,0,1,3.06641,7.60351c0,1.46973-.37793,2.0166-1.93262,2.0166H46.4351C46.771,23.83971,49.12358,25.35143,51.896,25.35143Zm-5.419-8.31739H54.6685a4.44751,4.44751,0,0,0-1.17578-2.43652,3.98871,3.98871,0,0,0-2.94043-1.17578A3.90579,3.90579,0,0,0,46.47709,17.034Z"/><path class="cls-1" d="M75.2017,25.35143a7.701,7.701,0,0,0,4.49512-1.51172c.75586-.58887,1.38574-.88281,2.18457-.042l1.42773,1.46972a1.337,1.337,0,0,1,.084,2.14258c-1.89063,2.0166-5.71289,3.1084-9.03125,3.1084-6.72168,0-11.63672-4.53613-11.63672-11.08984,0-6.34278,4.70508-11.00586,11.30078-11.00586a11.0828,11.0828,0,0,1,7.93945,2.98242,10.80932,10.80932,0,0,1,3.06641,7.60351c0,1.46973-.37793,2.0166-1.93262,2.0166H69.74077C70.0767,23.83971,72.42924,25.35143,75.2017,25.35143ZM69.78276,17.034h8.1914a4.44744,4.44744,0,0,0-1.17578-2.43652A3.98868,3.98868,0,0,0,73.858,13.42174,3.90578,3.90578,0,0,0,69.78276,17.034Z"/><path class="cls-1" d="M111.91557,29.67858a8.42327,8.42327,0,0,1-3.6123.83984A4.71783,4.71783,0,0,1,103.5562,27.368a9.05194,9.05194,0,0,1-6.97364,3.15039c-6.04883,0-10.502-4.83106-10.502-11.04785s4.41113-11.04785,10.502-11.04785a10.09438,10.09438,0,0,1,5.293,1.4707V2.58385c0-1.21875.67285-1.72266,1.93262-1.93262l3.40234-.62988c1.30274-.168,1.97461.67187,1.97461,1.93262V23.62975c0,.41992.042.79785.46192.79785.29394,0,.62988-.21,1.00878-.21.67188-.084,1.04981.33594,1.30176,1.17578l.67188,2.31055C113.04936,28.92272,112.58745,29.30065,111.91557,29.67858Zm-9.66211-10.208c0-2.94043-1.93164-4.83106-4.49414-4.83106a4.533,4.533,0,0,0-4.49512,4.83106,4.50634,4.50634,0,1,0,8.98926,0Z"/><path d="M114.10209,27.21275a3.11963,3.11963,0,1,1,3.11914,3.12012A3.11745,3.11745,0,0,1,114.10209,27.21275Z"/></g></g></svg>